<?xml version="1.0" encoding="UTF-8"?>
<svg width="158px" height="156px" viewBox="0 0 158 156" version="1.1" xmlns="http://www.w3.org/2000/svg" xmlns:xlink="http://www.w3.org/1999/xlink">
    <title>Combined Shape</title>
    <g id="Page-1" stroke="none" stroke-width="1" fill="none" fill-rule="evenodd">
        <path d="M39.0869562,0.866134747 C67.3886953,0.853723399 95.6718475,0.878546094 123.967391,0.859929073 C130.925108,1.00265957 137.814674,2.27482269 143.644782,6.28368793 C150.627282,10.9503546 155.305,18.4654255 156.996413,26.6382979 C158.000108,31.429078 157.622174,36.5611702 157.671739,41.5070922 C157.709777,68.1914894 157.653152,94.8758865 157.709777,121.560284 C157.7275,126.276596 157.163695,131.321809 155.317391,135.696809 C151.637174,144.062057 144.778587,151.055851 136.055108,154.046986 C131.65,155.734929 127.405978,155.523936 122.728261,155.821809 C115.020869,155.859043 107.307282,155.840426 99.599891,155.828014 C99.1228257,151.037234 98.5528257,146.234043 98.3049997,141.424645 C98.2864127,135.181738 97.0782605,129.050532 97.0534779,122.801418 C96.570217,115.609043 95.6718475,108.503546 95.7399997,101.261525 C98.7324997,99.8404255 102.022391,98.6241135 104.729891,96.7003546 C106.235434,95.6578014 106.594782,94.1560284 107.177174,92.5239362 C109.921847,83.9228723 112.598369,75.2845745 115.429782,66.714539 C116.123695,64.4246454 115.566087,62.0292553 113.391413,60.7819149 C108.831413,58.1320922 103.174782,57.8714539 98.0633692,57.1453901 C99.9406518,51.1631206 102.065761,45.2553191 104.457282,39.4592198 C103.478369,38.3980496 102.493261,37.1755319 101.2975,36.3687943 C99.9468475,35.4627659 98.2492388,35.6613475 96.7065214,35.6241135 C91.2543475,35.7420213 85.8021736,35.6551418 80.3561953,35.6303191 C80.325217,33.8368794 80.3004344,32.0434397 80.2818475,30.25 C81.7564127,29.983156 83.2309779,29.716312 84.6993475,29.4246454 C84.6745649,28.1586879 84.637391,26.8865248 84.600217,25.6205674 C80.6226083,24.5159574 76.9857605,25.1799645 72.9090214,25.1303191 C72.648804,26.3093972 72.4195649,27.4884752 72.2089127,28.6737589 L73.4976083,29.9769503 L73.4976083,29.9769503 C74.5818475,29.9955674 75.6722823,30.0141844 76.7565214,30.0328014 C76.7441301,31.9193262 76.7379344,33.7996454 76.7255431,35.6861702 C71.8991301,35.6737589 67.072717,35.7171986 62.246304,35.6551418 C62.4011953,29.6046099 62.3640214,23.554078 62.3392388,17.5097518 C61.694891,17.5283688 61.0443475,17.5531915 60.3999997,17.5718085 C60.2574997,23.5292553 60.7159779,29.5301418 60.1521736,35.4565603 C59.0431518,35.5744681 57.9093475,35.6117021 56.8189127,35.8351064 C55.263804,36.679078 54.0370649,38.2739362 52.8289127,39.5398936 C55.3753257,45.2367021 57.4570649,51.0700355 58.9192388,57.1391844 C55.3257605,57.7473404 51.6579344,58.1134752 48.1078257,58.9636525 C45.5056518,59.6028369 43.6779344,61.2101064 41.726304,62.9414894 C41.9059779,67.5212766 43.7770649,71.3191489 45.0409779,75.6382979 C46.8315214,81.7757092 48.9999997,87.7765957 50.7285866,93.9326241 C51.3667388,96.3466312 53.2997823,97.2836879 55.3381518,98.3572695 C57.6553257,99.4618794 59.9786953,100.529255 62.2153257,101.782801 C61.5647823,107.336879 61.4532605,112.953014 60.7965214,118.519504 C60.269891,122.509752 60.536304,126.512411 60.0778257,130.508865 C59.7308692,134.759752 59.2909779,139.004433 59.1484779,143.273936 C58.8882605,147.344858 58.4297823,151.366135 58.5289127,155.449468 C49.5699997,155.573582 40.6110866,155.474291 31.6521736,155.492908 C17.767717,155.828014 4.70108661,145.675532 1.30586922,132.215426 C0.165869217,127.815603 0.277390956,123.577128 0.258804,119.078014 C0.289782261,90.1223404 0.252608348,61.1542553 0.271195304,32.1985816 C-0.013804696,21.9964539 5.50652139,12.6755319 13.4307605,6.58776595 C17.8916301,3.429078 23.343804,1.73492907 28.7278257,1.05851063 C32.1540214,0.717198577 35.6483692,0.897163115 39.0869562,0.866134747 Z M64.1111952,68.3218085 C64.6811952,75.0301418 65.6167387,81.6950355 66.2548909,88.3909574 C62.7667387,88.4406028 59.2785865,88.4281915 55.7904343,88.3847518 C53.7210865,81.7012411 51.5773909,75.0301418 49.52663,68.3404255 C54.3840213,68.2969858 59.2476083,68.3156028 64.1111952,68.3218085 Z M103.729179,67.8940765 L106.747184,67.9420534 C107.249992,67.9495445 107.752681,67.9563631 108.255217,67.9618793 C105.8575,74.6764183 104.190869,81.5709218 102.133913,88.3847516 C98.3793478,88.434397 94.6247826,88.4281913 90.876413,88.3909573 C91.7995652,81.8501771 92.7165217,75.309397 93.5405434,68.7562055 C93.9122826,68.4831559 94.2902173,68.2101062 94.6743478,67.9556736 C97.6895652,67.8232859 100.71029,67.8481086 103.729179,67.8940765 Z M87.896304,67.9680852 C87.5059779,74.781915 86.2730431,81.533688 85.6906518,88.3351065 C81.0253257,88.4406029 76.3661953,88.3909575 71.7008692,88.3599292 C71.0317387,81.5460994 69.9536953,74.7322696 69.637717,67.8936171 C75.7218474,67.9122341 81.8121735,67.8253547 87.896304,67.9680852 Z M95.8577177,44.9326244 C94.5380438,47.8741138 94.054783,51.2189719 92.5430438,54.0301421 C87.1032612,55.0230499 81.1678264,54.5886528 75.6413047,54.7003549 C71.8185873,54.79344 68.1445656,54.5017734 64.377609,53.899823 C63.8014134,50.8093975 62.5189134,47.9982273 61.546196,45.0381209 C72.9585873,44.7526599 84.4391308,45.0257095 95.8577177,44.9326244 Z" id="Combined-Shape" fill="#000000" fill-rule="nonzero"></path>
    </g>
</svg>