<?xml version="1.0" encoding="UTF-8"?>
<svg width="153px" height="153px" viewBox="0 0 153 153" version="1.1" xmlns="http://www.w3.org/2000/svg" xmlns:xlink="http://www.w3.org/1999/xlink">
    <title>Group 2</title>
    <defs>
        <rect id="path-1" x="0" y="0" width="153" height="153" rx="35"></rect>
    </defs>
    <g id="Page-1" stroke="none" stroke-width="1" fill="none" fill-rule="evenodd">
        <g id="Group-2">
            <mask id="mask-2" fill="white">
                <use xlink:href="#path-1"></use>
            </mask>
            <g id="Rectangle"></g>
            <g id="icon" mask="url(#mask-2)">
                <g transform="translate(-11.000000, -11.000000)" id="Group">
                    <g>
                        <g id="p0-link" fill="#000000" fill-rule="nonzero" stroke="#F2F5F7">
                            <path d="M0,0 L171,0 L171,175 L0,175 L0,0 Z M66.528913,165.449468 C66.4297826,161.366135 66.8882609,157.344858 67.1484783,153.273936 C67.2909783,149.004433 67.7308696,144.759752 68.0778261,140.508865 C68.5363043,136.512411 68.2698913,132.509752 68.7965217,128.519504 C69.4532609,122.953014 69.5647826,117.336879 70.2153261,111.782801 C67.9786957,110.529255 65.6553261,109.461879 63.3381522,108.35727 C61.2997826,107.283688 59.3667391,106.346631 58.728587,103.932624 C57,97.7765957 54.8315217,91.7757092 53.0409783,85.6382979 C51.7770652,81.3191489 49.9059783,77.5212766 49.7263043,72.9414894 C51.6779348,71.2101064 53.5056522,69.6028369 56.1078261,68.9636525 C59.6579348,68.1134752 63.3257609,67.7473404 66.9192391,67.1391844 C65.4570652,61.0700355 63.3753261,55.2367021 60.828913,49.5398936 C62.0370652,48.2739362 63.2638043,46.679078 64.818913,45.8351064 C65.9093478,45.6117021 67.0431522,45.5744681 68.1521739,45.4565603 C68.7159783,39.5301418 68.2575,33.5292553 68.4,27.5718085 C69.0443478,27.5531915 69.6948913,27.5283688 70.3392391,27.5097518 C70.3640217,33.554078 70.4011957,39.6046099 70.2463043,45.6551418 C75.0727174,45.7171986 79.8991304,45.6737589 84.7255435,45.6861702 C84.7379348,43.7996454 84.7441304,41.9193262 84.7565217,40.0328014 C83.6722826,40.0141844 82.5818478,39.9955674 81.4976087,39.9769504 C81.0701087,39.5425532 80.636413,39.108156 80.208913,38.6737589 C80.4195652,37.4884752 80.6488043,36.3093972 80.9090217,35.1303191 C84.9857609,35.1799645 88.6226087,34.5159574 92.6002174,35.6205674 C92.6373913,36.8865248 92.6745652,38.1586879 92.6993478,39.4246454 C91.2309783,39.7163121 89.756413,39.983156 88.2818478,40.25 C88.3004348,42.0434397 88.3252174,43.8368794 88.3561957,45.6303191 C93.8021739,45.6551418 99.2543478,45.7420213 104.706522,45.6241135 C106.249239,45.6613475 107.946848,45.462766 109.2975,46.3687943 C110.493261,47.1755319 111.47837,48.3980496 112.457283,49.4592199 C110.065761,55.2553191 107.940652,61.1631206 106.06337,67.1453901 C111.174783,67.8714539 116.831413,68.1320922 121.391413,70.7819149 C123.566087,72.0292553 124.123696,74.4246454 123.429783,76.714539 C120.59837,85.2845745 117.921848,93.9228723 115.177174,102.523936 C114.594783,104.156028 114.235435,105.657801 112.729891,106.700355 C110.022391,108.624113 106.7325,109.840426 103.74,111.261525 C103.671848,118.503546 104.570217,125.609043 105.053478,132.801418 C105.078261,139.050532 106.286413,145.181738 106.305,151.424645 C106.552826,156.234043 107.122826,161.037234 107.599891,165.828014 C115.307283,165.840426 123.02087,165.859043 130.728261,165.821809 C135.405978,165.523936 139.65,165.734929 144.055109,164.046986 C152.778587,161.055851 159.637174,154.062057 163.317391,145.696809 C165.163696,141.321809 165.7275,136.276596 165.709355,131.560284 C165.653152,104.875887 165.709355,78.1914894 165.671739,51.5070922 C165.622174,46.5611702 166.000109,41.429078 164.996413,36.6382979 C163.305,28.4654255 158.627283,20.9503546 151.644783,16.2836879 C145.814674,12.2748227 138.925109,11.0026596 131.967391,10.8599291 C103.671848,10.8785461 75.3886957,10.8537234 47.0869565,10.8661348 C43.6483696,10.8971631 40.1540217,10.7171986 36.7278261,11.0585106 C31.3438043,11.7349291 25.8916304,13.429078 21.4307609,16.587766 C13.5065217,22.6755319 7.98619565,31.9964539 8.27119565,42.1985816 C8.2526087,71.1542553 8.28978261,100.12234 8.25880435,129.078014 C8.2773913,133.577128 8.16586957,137.815603 9.30586957,142.215426 C12.701087,155.675532 25.7677174,165.828014 39.6521739,165.492908 C48.611087,165.474291 57.57,165.573582 66.528913,165.449468 Z M72.3776087,63.8998227 C76.1445652,64.501773 79.818587,64.7934397 83.6413043,64.7003546 C89.1678261,64.5886525 95.1032609,65.0230496 100.543043,64.0301418 C102.054783,61.2189716 102.538043,57.8741135 103.857717,54.9326241 C92.4391304,55.0257092 80.958587,54.7526596 69.5461957,55.0381206 C70.518913,57.998227 71.801413,60.8093972 72.3776087,63.8998227 Z M77.6377174,77.893617 C77.9536957,84.7322695 79.0317391,91.5460993 79.7008696,98.3599291 C84.3661957,98.3909574 89.0253261,98.4406028 93.6906522,98.3351064 C94.2730435,91.5336879 95.5059783,84.7819149 95.8963043,77.9680851 C89.8121739,77.8253546 83.7218478,77.912234 77.6377174,77.893617 Z M101.540543,78.7562057 C100.716522,85.3093972 99.7995652,91.8501773 98.876413,98.3909574 C102.624783,98.4281915 106.379348,98.4343972 110.133913,98.3847518 C112.19087,91.570922 113.8575,84.6764184 116.255217,77.9618794 C111.732391,77.912234 107.197174,77.7570922 102.674348,77.9556738 C102.290217,78.2101064 101.912283,78.483156 101.540543,78.7562057 Z M57.5266304,78.3404255 C59.5773913,85.0301418 61.721087,91.7012411 63.7904348,98.3847518 C67.278587,98.4281915 70.7667391,98.4406028 74.2548913,98.3909574 C73.6167391,91.6950355 72.6811957,85.0301418 72.1111957,78.3218085 C67.2476087,78.3156028 62.3840217,78.2969858 57.5266304,78.3404255 Z" id="p0"></path>
                        </g>
                        <g id="p1-link" transform="translate(8.258804, 10.845919)" fill="#000000" fill-rule="nonzero" stroke="#4291C4">
                            <path d="M28.4690217,0.212591628 C31.8952174,-0.128720428 35.3895652,0.0512441106 38.8281522,0.0202157418 C67.1298913,0.00780439424 95.4130435,0.0326270893 123.708587,0.014010068 C130.666304,0.156740564 137.55587,1.42890369 143.385978,5.43776893 C150.368478,10.1044356 155.046196,17.6195065 156.737609,25.7923789 C157.741304,30.583159 157.36337,35.7152512 157.412935,40.6611732 C157.450551,67.3455704 157.394348,94.0299675 157.450551,120.714365 C157.468696,125.430677 156.904891,130.47589 155.058587,134.85089 C151.37837,143.216138 144.519783,150.209932 135.796304,153.201067 C131.391196,154.88901 127.147174,154.678017 122.469457,154.97589 C114.762065,155.013124 107.048478,154.994507 99.341087,154.982095 C98.8640217,150.191315 98.2940217,145.388124 98.0461957,140.578726 C98.0276087,134.335819 96.8194565,128.204613 96.7946739,121.955499 C96.311413,114.763124 95.4130435,107.657627 95.4811957,100.415606 C98.4736957,98.9945065 101.763587,97.7781945 104.471087,95.8544356 C105.97663,94.8118824 106.335978,93.3101094 106.91837,91.6780172 C109.663043,83.0769533 112.339565,74.4386555 115.170978,65.86862 C115.864891,63.5787264 115.307283,61.1833363 113.132609,59.9359959 C108.572609,57.2861732 102.915978,57.0255349 97.8045652,56.2994711 C99.6818478,50.3172016 101.806957,44.4094001 104.198478,38.6133008 C103.219565,37.5521306 102.234457,36.3296129 101.038696,35.5228753 C99.6880435,34.6168469 97.9904348,34.8154285 96.4477174,34.7781945 C90.9955435,34.8961023 85.5433696,34.8092228 80.0973913,34.7844001 C80.066413,32.9909604 80.0416304,31.1975207 80.0230435,29.404081 C81.4976087,29.137237 82.9721739,28.870393 84.4405435,28.5787264 C84.4157609,27.3127689 84.378587,26.0406058 84.341413,24.7746484 C80.3638043,23.6700384 76.7269565,24.3340455 72.6502174,24.2844001 C72.39,25.4634782 72.1607609,26.6425562 71.9501087,27.8278399 C72.3776087,28.262237 72.8113043,28.6966342 73.2388043,29.1310313 C74.3230435,29.1496484 75.4134783,29.1682654 76.4977174,29.1868824 C76.4853261,31.0734072 76.4791304,32.9537264 76.4667391,34.8402512 C71.6403261,34.8278399 66.813913,34.8712796 61.9875,34.8092228 C62.1423913,28.7586909 62.1052174,22.708159 62.0804348,16.6638328 C61.436087,16.6824498 60.7855435,16.7072725 60.1411957,16.7258895 C59.9986957,22.6833363 60.4571739,28.6842228 59.8933696,34.6106413 C58.7843478,34.7285491 57.6505435,34.7657831 56.5601087,34.9891874 C55.005,35.833159 53.7782609,37.4280172 52.5701087,38.6939746 C55.1165217,44.3907831 57.1982609,50.2241165 58.6604348,56.2932654 C55.0669565,56.9014214 51.3991304,57.2675562 47.8490217,58.1177335 C45.2468478,58.7569179 43.4191304,60.3641874 41.4675,62.0955704 C41.6471739,66.6753576 43.5182609,70.4732299 44.7821739,74.7923789 C46.5727174,80.9297902 48.7411957,86.9306767 50.4697826,93.0867051 C51.1079348,95.5007122 53.0409783,96.4377689 55.0793478,97.5113505 C57.3965217,98.6159604 59.7198913,99.6833363 61.9565217,100.936882 C61.3059783,106.49096 61.1944565,112.107095 60.5377174,117.673585 C60.011087,121.663833 60.2775,125.666492 59.8190217,129.662946 C59.4720652,133.913833 59.0321739,138.158514 58.8896739,142.428017 C58.6294565,146.498939 58.1709783,150.520216 58.2701087,154.603549 C49.3111957,154.727663 40.3522826,154.628372 31.3933696,154.646989 C17.508913,154.982095 4.44228261,144.829613 1.04706522,131.369507 C-0.0929347826,126.969684 0.0185869565,122.731209 -7.70398238e-15,118.232095 C0.0309782609,89.2764214 -0.00619565217,60.3083363 0.0123913043,31.3526626 C-0.272608696,21.1505349 5.24771739,11.8296129 13.1719565,5.74184695 C17.6328261,2.583159 23.085,0.889010068 28.4690217,0.212591628 Z" id="p1"></path>
                        </g>
                        <g id="p2-link" transform="translate(69.546196, 54.903798)" fill="#000000" fill-rule="nonzero" stroke="#4291C4">
                            <path d="M0,0.134322865 C11.4123913,-0.151138128 22.8929348,0.121911517 34.3115217,0.0288264107 C32.9918478,2.97031577 32.508587,6.31517393 30.9968478,9.12634414 C25.5570652,10.1192519 19.6216304,9.68485478 14.0951087,9.79655691 C10.2723913,9.88964201 6.59836957,9.59797535 2.83141304,8.99602499 C2.25521739,5.90559946 0.972717391,3.09442925 0,0.134322865 Z" id="p2"></path>
                        </g>
                        <g id="p3-link" transform="translate(77.637717, 77.884197)" fill="#000000" fill-rule="nonzero" stroke="#4291C4">
                            <path d="M0,0.00942009918 C6.08413043,0.0280371205 12.1744565,-0.0588423122 18.258587,0.0838881843 C17.8682609,6.89771797 16.6353261,13.649491 16.0529348,20.4509095 C11.3876087,20.5564059 6.72847826,20.5067605 2.06315217,20.4757322 C1.39402174,13.6619024 0.315978261,6.84807258 0,0.00942009918 Z" id="p3"></path>
                        </g>
                        <g id="p4-link" transform="translate(98.876413, 77.857261)" fill="#000000" fill-rule="nonzero" stroke="#4291C4">
                            <path d="M3.79793478,0.0984125765 C8.32076087,-0.100168984 12.8559783,0.0549728601 17.3788043,0.10461825 C14.981087,6.81915726 13.3144565,13.7136608 11.2575,20.5274906 C7.50293478,20.577136 3.74836957,20.5709303 -1.76091026e-14,20.5336963 C0.923152174,13.9929161 1.8401087,7.45213598 2.66413043,0.898944491 C3.03586957,0.625894846 3.41380435,0.352845201 3.79793478,0.0984125765 Z" id="p4"></path>
                        </g>
                        <g id="p5-link" transform="translate(57.526630, 78.312500)" fill="#000000" fill-rule="nonzero" stroke="#4291C4">
                            <path d="M0,0.0279255319 C4.8573913,-0.0155141844 9.72097826,0.00310283688 14.5845652,0.00930851064 C15.1545652,6.71764184 16.0901087,13.3825355 16.7282609,20.0784574 C13.2401087,20.1281028 9.75195652,20.1156915 6.26380435,20.0722518 C4.19445652,13.3887411 2.05076087,6.71764184 0,0.0279255319 Z" id="p5"></path>
                        </g>
                    </g>
                    <g>
                        <g id="p0-link" fill="#F2F5F7" fill-rule="nonzero">
                            <path d="M0,0 L171,0 L171,175 L0,175 L0,0 Z M66.528913,165.449468 C66.4297826,161.366135 66.8882609,157.344858 67.1484783,153.273936 C67.2909783,149.004433 67.7308696,144.759752 68.0778261,140.508865 C68.5363043,136.512411 68.2698913,132.509752 68.7965217,128.519504 C69.4532609,122.953014 69.5647826,117.336879 70.2153261,111.782801 C67.9786957,110.529255 65.6553261,109.461879 63.3381522,108.35727 C61.2997826,107.283688 59.3667391,106.346631 58.728587,103.932624 C57,97.7765957 54.8315217,91.7757092 53.0409783,85.6382979 C51.7770652,81.3191489 49.9059783,77.5212766 49.7263043,72.9414894 C51.6779348,71.2101064 53.5056522,69.6028369 56.1078261,68.9636525 C59.6579348,68.1134752 63.3257609,67.7473404 66.9192391,67.1391844 C65.4570652,61.0700355 63.3753261,55.2367021 60.828913,49.5398936 C62.0370652,48.2739362 63.2638043,46.679078 64.818913,45.8351064 C65.9093478,45.6117021 67.0431522,45.5744681 68.1521739,45.4565603 C68.7159783,39.5301418 68.2575,33.5292553 68.4,27.5718085 C69.0443478,27.5531915 69.6948913,27.5283688 70.3392391,27.5097518 C70.3640217,33.554078 70.4011957,39.6046099 70.2463043,45.6551418 C75.0727174,45.7171986 79.8991304,45.6737589 84.7255435,45.6861702 C84.7379348,43.7996454 84.7441304,41.9193262 84.7565217,40.0328014 C83.6722826,40.0141844 82.5818478,39.9955674 81.4976087,39.9769504 C81.0701087,39.5425532 80.636413,39.108156 80.208913,38.6737589 C80.4195652,37.4884752 80.6488043,36.3093972 80.9090217,35.1303191 C84.9857609,35.1799645 88.6226087,34.5159574 92.6002174,35.6205674 C92.6373913,36.8865248 92.6745652,38.1586879 92.6993478,39.4246454 C91.2309783,39.7163121 89.756413,39.983156 88.2818478,40.25 C88.3004348,42.0434397 88.3252174,43.8368794 88.3561957,45.6303191 C93.8021739,45.6551418 99.2543478,45.7420213 104.706522,45.6241135 C106.249239,45.6613475 107.946848,45.462766 109.2975,46.3687943 C110.493261,47.1755319 111.47837,48.3980496 112.457283,49.4592199 C110.065761,55.2553191 107.940652,61.1631206 106.06337,67.1453901 C111.174783,67.8714539 116.831413,68.1320922 121.391413,70.7819149 C123.566087,72.0292553 124.123696,74.4246454 123.429783,76.714539 C120.59837,85.2845745 117.921848,93.9228723 115.177174,102.523936 C114.594783,104.156028 114.235435,105.657801 112.729891,106.700355 C110.022391,108.624113 106.7325,109.840426 103.74,111.261525 C103.671848,118.503546 104.570217,125.609043 105.053478,132.801418 C105.078261,139.050532 106.286413,145.181738 106.305,151.424645 C106.552826,156.234043 107.122826,161.037234 107.599891,165.828014 C115.307283,165.840426 123.02087,165.859043 130.728261,165.821809 C135.405978,165.523936 139.65,165.734929 144.055109,164.046986 C152.778587,161.055851 159.637174,154.062057 163.317391,145.696809 C165.163696,141.321809 165.7275,136.276596 165.709355,131.560284 C165.653152,104.875887 165.709355,78.1914894 165.671739,51.5070922 C165.622174,46.5611702 166.000109,41.429078 164.996413,36.6382979 C163.305,28.4654255 158.627283,20.9503546 151.644783,16.2836879 C145.814674,12.2748227 138.925109,11.0026596 131.967391,10.8599291 C103.671848,10.8785461 75.3886957,10.8537234 47.0869565,10.8661348 C43.6483696,10.8971631 40.1540217,10.7171986 36.7278261,11.0585106 C31.3438043,11.7349291 25.8916304,13.429078 21.4307609,16.587766 C13.5065217,22.6755319 7.98619565,31.9964539 8.27119565,42.1985816 C8.2526087,71.1542553 8.28978261,100.12234 8.25880435,129.078014 C8.2773913,133.577128 8.16586957,137.815603 9.30586957,142.215426 C12.701087,155.675532 25.7677174,165.828014 39.6521739,165.492908 C48.611087,165.474291 57.57,165.573582 66.528913,165.449468 Z M72.3776087,63.8998227 C76.1445652,64.501773 79.818587,64.7934397 83.6413043,64.7003546 C89.1678261,64.5886525 95.1032609,65.0230496 100.543043,64.0301418 C102.054783,61.2189716 102.538043,57.8741135 103.857717,54.9326241 C92.4391304,55.0257092 80.958587,54.7526596 69.5461957,55.0381206 C70.518913,57.998227 71.801413,60.8093972 72.3776087,63.8998227 Z M77.6377174,77.893617 C77.9536957,84.7322695 79.0317391,91.5460993 79.7008696,98.3599291 C84.3661957,98.3909574 89.0253261,98.4406028 93.6906522,98.3351064 C94.2730435,91.5336879 95.5059783,84.7819149 95.8963043,77.9680851 C89.8121739,77.8253546 83.7218478,77.912234 77.6377174,77.893617 Z M101.540543,78.7562057 C100.716522,85.3093972 99.7995652,91.8501773 98.876413,98.3909574 C102.624783,98.4281915 106.379348,98.4343972 110.133913,98.3847518 C112.19087,91.570922 113.8575,84.6764184 116.255217,77.9618794 C111.732391,77.912234 107.197174,77.7570922 102.674348,77.9556738 C102.290217,78.2101064 101.912283,78.483156 101.540543,78.7562057 Z M57.5266304,78.3404255 C59.5773913,85.0301418 61.721087,91.7012411 63.7904348,98.3847518 C67.278587,98.4281915 70.7667391,98.4406028 74.2548913,98.3909574 C73.6167391,91.6950355 72.6811957,85.0301418 72.1111957,78.3218085 C67.2476087,78.3156028 62.3840217,78.2969858 57.5266304,78.3404255 Z" id="p0"></path>
                        </g>
                        <g id="p1-link" transform="translate(8.258804, 10.845919)" fill="#4291C4" fill-rule="nonzero">
                            <path d="M28.4690217,0.212591628 C31.8952174,-0.128720428 35.3895652,0.0512441106 38.8281522,0.0202157418 C67.1298913,0.00780439424 95.4130435,0.0326270893 123.708587,0.014010068 C130.666304,0.156740564 137.55587,1.42890369 143.385978,5.43776893 C150.368478,10.1044356 155.046196,17.6195065 156.737609,25.7923789 C157.741304,30.583159 157.36337,35.7152512 157.412935,40.6611732 C157.450551,67.3455704 157.394348,94.0299675 157.450551,120.714365 C157.468696,125.430677 156.904891,130.47589 155.058587,134.85089 C151.37837,143.216138 144.519783,150.209932 135.796304,153.201067 C131.391196,154.88901 127.147174,154.678017 122.469457,154.97589 C114.762065,155.013124 107.048478,154.994507 99.341087,154.982095 C98.8640217,150.191315 98.2940217,145.388124 98.0461957,140.578726 C98.0276087,134.335819 96.8194565,128.204613 96.7946739,121.955499 C96.311413,114.763124 95.4130435,107.657627 95.4811957,100.415606 C98.4736957,98.9945065 101.763587,97.7781945 104.471087,95.8544356 C105.97663,94.8118824 106.335978,93.3101094 106.91837,91.6780172 C109.663043,83.0769533 112.339565,74.4386555 115.170978,65.86862 C115.864891,63.5787264 115.307283,61.1833363 113.132609,59.9359959 C108.572609,57.2861732 102.915978,57.0255349 97.8045652,56.2994711 C99.6818478,50.3172016 101.806957,44.4094001 104.198478,38.6133008 C103.219565,37.5521306 102.234457,36.3296129 101.038696,35.5228753 C99.6880435,34.6168469 97.9904348,34.8154285 96.4477174,34.7781945 C90.9955435,34.8961023 85.5433696,34.8092228 80.0973913,34.7844001 C80.066413,32.9909604 80.0416304,31.1975207 80.0230435,29.404081 C81.4976087,29.137237 82.9721739,28.870393 84.4405435,28.5787264 C84.4157609,27.3127689 84.378587,26.0406058 84.341413,24.7746484 C80.3638043,23.6700384 76.7269565,24.3340455 72.6502174,24.2844001 C72.39,25.4634782 72.1607609,26.6425562 71.9501087,27.8278399 C72.3776087,28.262237 72.8113043,28.6966342 73.2388043,29.1310313 C74.3230435,29.1496484 75.4134783,29.1682654 76.4977174,29.1868824 C76.4853261,31.0734072 76.4791304,32.9537264 76.4667391,34.8402512 C71.6403261,34.8278399 66.813913,34.8712796 61.9875,34.8092228 C62.1423913,28.7586909 62.1052174,22.708159 62.0804348,16.6638328 C61.436087,16.6824498 60.7855435,16.7072725 60.1411957,16.7258895 C59.9986957,22.6833363 60.4571739,28.6842228 59.8933696,34.6106413 C58.7843478,34.7285491 57.6505435,34.7657831 56.5601087,34.9891874 C55.005,35.833159 53.7782609,37.4280172 52.5701087,38.6939746 C55.1165217,44.3907831 57.1982609,50.2241165 58.6604348,56.2932654 C55.0669565,56.9014214 51.3991304,57.2675562 47.8490217,58.1177335 C45.2468478,58.7569179 43.4191304,60.3641874 41.4675,62.0955704 C41.6471739,66.6753576 43.5182609,70.4732299 44.7821739,74.7923789 C46.5727174,80.9297902 48.7411957,86.9306767 50.4697826,93.0867051 C51.1079348,95.5007122 53.0409783,96.4377689 55.0793478,97.5113505 C57.3965217,98.6159604 59.7198913,99.6833363 61.9565217,100.936882 C61.3059783,106.49096 61.1944565,112.107095 60.5377174,117.673585 C60.011087,121.663833 60.2775,125.666492 59.8190217,129.662946 C59.4720652,133.913833 59.0321739,138.158514 58.8896739,142.428017 C58.6294565,146.498939 58.1709783,150.520216 58.2701087,154.603549 C49.3111957,154.727663 40.3522826,154.628372 31.3933696,154.646989 C17.508913,154.982095 4.44228261,144.829613 1.04706522,131.369507 C-0.0929347826,126.969684 0.0185869565,122.731209 -7.70398238e-15,118.232095 C0.0309782609,89.2764214 -0.00619565217,60.3083363 0.0123913043,31.3526626 C-0.272608696,21.1505349 5.24771739,11.8296129 13.1719565,5.74184695 C17.6328261,2.583159 23.085,0.889010068 28.4690217,0.212591628 Z" id="p1"></path>
                        </g>
                        <g id="p2-link" transform="translate(69.546196, 54.903798)" fill="#4291C4" fill-rule="nonzero">
                            <path d="M0,0.134322865 C11.4123913,-0.151138128 22.8929348,0.121911517 34.3115217,0.0288264107 C32.9918478,2.97031577 32.508587,6.31517393 30.9968478,9.12634414 C25.5570652,10.1192519 19.6216304,9.68485478 14.0951087,9.79655691 C10.2723913,9.88964201 6.59836957,9.59797535 2.83141304,8.99602499 C2.25521739,5.90559946 0.972717391,3.09442925 0,0.134322865 Z" id="p2"></path>
                        </g>
                        <g id="p3-link" transform="translate(77.637717, 77.884197)" fill="#4291C4" fill-rule="nonzero">
                            <path d="M0,0.00942009918 C6.08413043,0.0280371205 12.1744565,-0.0588423122 18.258587,0.0838881843 C17.8682609,6.89771797 16.6353261,13.649491 16.0529348,20.4509095 C11.3876087,20.5564059 6.72847826,20.5067605 2.06315217,20.4757322 C1.39402174,13.6619024 0.315978261,6.84807258 0,0.00942009918 Z" id="p3"></path>
                        </g>
                        <g id="p4-link" transform="translate(98.876413, 77.857261)" fill="#4291C4" fill-rule="nonzero">
                            <path d="M3.79793478,0.0984125765 C8.32076087,-0.100168984 12.8559783,0.0549728601 17.3788043,0.10461825 C14.981087,6.81915726 13.3144565,13.7136608 11.2575,20.5274906 C7.50293478,20.577136 3.74836957,20.5709303 -1.76091026e-14,20.5336963 C0.923152174,13.9929161 1.8401087,7.45213598 2.66413043,0.898944491 C3.03586957,0.625894846 3.41380435,0.352845201 3.79793478,0.0984125765 Z" id="p4"></path>
                        </g>
                        <g id="p5-link" transform="translate(57.526630, 78.312500)" fill="#4291C4" fill-rule="nonzero">
                            <path d="M0,0.0279255319 C4.8573913,-0.0155141844 9.72097826,0.00310283688 14.5845652,0.00930851064 C15.1545652,6.71764184 16.0901087,13.3825355 16.7282609,20.0784574 C13.2401087,20.1281028 9.75195652,20.1156915 6.26380435,20.0722518 C4.19445652,13.3887411 2.05076087,6.71764184 0,0.0279255319 Z" id="p5"></path>
                        </g>
                    </g>
                </g>
            </g>
        </g>
    </g>
</svg>